<svg xmlns="http://www.w3.org/2000/svg" viewBox="0 0 23 18.4" width="23" height="18.4">
    <path fill="currentColor" d="M14.117 0.043a1.15 1.15 0 0 0 -1.423 0.791l-4.6 16.1a1.151 1.151 0 0 0 2.213 0.633l4.6 -16.1A1.15 1.15 0 0 0 14.116 0.043m2.897 4.315a1.15 1.15 0 0 0 0 1.628l3.209 3.212 -3.212 3.212a1.15 1.15 0 1 0 1.628 1.628l4.025 -4.025a1.15 1.15 0 0 0 0 -1.628l-4.025 -4.025a1.15 1.15 0 0 0 -1.628 0zm-11.022 0a1.15 1.15 0 0 0 -1.628 0l-4.025 4.025a1.15 1.15 0 0 0 0 1.628l4.025 4.025a1.15 1.15 0 1 0 1.628 -1.628L2.778 9.2l3.212 -3.212a1.15 1.15 0 0 0 0 -1.628"/>
</svg>
